<svg xmlns="http://www.w3.org/2000/svg" viewBox="0 0 900 700" role="img" aria-label="Get validated"><defs><linearGradient id="g" x1="0" y1="0" x2="1" y2="1"><stop offset="0" stop-color="#E6FCF5"/><stop offset="1" stop-color="#BFF3E3"/></linearGradient><filter id="s" x="-20%" y="-20%" width="140%" height="160%"><feDropShadow dx="0" dy="16" stdDeviation="16" flood-color="#0A1931" flood-opacity=".16"/></filter></defs><rect width="900" height="700" fill="url(#g)"/><circle cx="790" cy="90" r="190" fill="#00B8A5" opacity="0.14"/><circle cx="90" cy="650" r="170" fill="#6D28D9" opacity="0.12"/><rect x="130" y="110" width="640" height="470" rx="30" fill="#fff" opacity="0.6" filter="url(#s)"/><path d="M450 140 L640 210 V350 C640 450 560 520 450 560 C340 520 260 450 260 350 V210Z" fill="#00B8A5" filter="url(#s)"/><path d="M450 185 L605 240 V350 C605 430 540 487 450 520 C360 487 295 430 295 350 V240Z" fill="#fff" opacity=".28"/><polyline points="370,350 430,410 540,290" fill="none" stroke="#fff" stroke-width="22" stroke-linecap="round" stroke-linejoin="round"/><rect x="160" y="520" width="200" height="24" rx="12" fill="#CBD5E8" opacity="1"/><rect x="160" y="520" width="150" height="24" rx="12" fill="#FF7A00" opacity="1"/><circle cx="700" cy="170" r="14" fill="#00D2BE" opacity="1"/><circle cx="190" cy="200" r="10" fill="#6D28D9" opacity="1"/></svg>