<svg xmlns="http://www.w3.org/2000/svg" viewBox="0 0 900 700" role="img" aria-label="Rising model accuracy chart"><defs><linearGradient id="g" x1="0" y1="0" x2="1" y2="1"><stop offset="0" stop-color="#FFF4E8"/><stop offset="1" stop-color="#FFDDBA"/></linearGradient><filter id="s" x="-20%" y="-20%" width="140%" height="160%"><feDropShadow dx="0" dy="16" stdDeviation="16" flood-color="#0A1931" flood-opacity=".16"/></filter></defs><rect width="900" height="700" fill="url(#g)"/><circle cx="790" cy="90" r="190" fill="#FF7A00" opacity="0.14"/><circle cx="90" cy="650" r="170" fill="#6D28D9" opacity="0.12"/><rect x="140" y="110" width="620" height="450" rx="24" fill="#fff" opacity="1" filter="url(#s)"/><rect x="200" y="410" width="50" height="90" rx="14" fill="#FF7A00" opacity="1"/><rect x="288" y="350" width="50" height="150" rx="14" fill="#6D28D9" opacity="1"/><rect x="376" y="380" width="50" height="120" rx="14" fill="#FF7A00" opacity="1"/><rect x="464" y="290" width="50" height="210" rx="14" fill="#6D28D9" opacity="1"/><rect x="552" y="250" width="50" height="250" rx="14" fill="#FF7A00" opacity="1"/><rect x="640" y="190" width="50" height="310" rx="14" fill="#6D28D9" opacity="1"/><line x1="180" y1="500" x2="720" y2="500" stroke="#CBD5E8" stroke-width="4" stroke-linecap="round" /><polyline points="225,400 313,340 401,372 489,270 577,230 665,160" fill="none" stroke="#0A1931" stroke-width="6" stroke-linecap="round" stroke-linejoin="round"/><circle cx="225" cy="400" r="9" fill="#fff" opacity="1"/><circle cx="225" cy="400" r="5" fill="#FF7A00" opacity="1"/><circle cx="313" cy="340" r="9" fill="#fff" opacity="1"/><circle cx="313" cy="340" r="5" fill="#FF7A00" opacity="1"/><circle cx="401" cy="372" r="9" fill="#fff" opacity="1"/><circle cx="401" cy="372" r="5" fill="#FF7A00" opacity="1"/><circle cx="489" cy="270" r="9" fill="#fff" opacity="1"/><circle cx="489" cy="270" r="5" fill="#FF7A00" opacity="1"/><circle cx="577" cy="230" r="9" fill="#fff" opacity="1"/><circle cx="577" cy="230" r="5" fill="#FF7A00" opacity="1"/><circle cx="665" cy="160" r="9" fill="#fff" opacity="1"/><circle cx="665" cy="160" r="5" fill="#FF7A00" opacity="1"/><path d="M665 160l-4 -34 30 18z" fill="#0A1931"/></svg>